# xmcd
#
# Track frame offsets:
#	150
#	24570
#	48160
#	76800
#	101700
#	126655
#	150022
#	177302
#	202610
#	223765
#	246510
#	276382
#	295580
#	322925
#
# Disc length: 4587 seconds
#
# Revision: 2
# Processed by: cddbd v1.4PL0 Copyright (c) Steve Scherf et al.
# Submitted via: dBpowerAMP V4.0
#
DISCID=be11e90e
DTITLE=Isley Brothers - The Isley Brothers - Funky Family 
DYEAR=1900
DGENRE=Rhythmic Soul
TTITLE0=Showdown
TTITLE1=Liquid Love (Parts 1&2)
TTITLE2=I Wanna Be With You (Parts 1&2)
TTITLE3=Who Loves You Better (Parts 1&2)
TTITLE4=The Pride (Parts 1&2)
TTITLE5=Take Me To The Next Phase (Parts 1&2)
TTITLE6=Hope You Feel Better (Parts 1&2)
TTITLE7=The Heat Is On (Parts 1&2)
TTITLE8=Ain't Givin' Up No Love
TTITLE9=Tell Me When You Need It Again (Parts 1&2)
TTITLE10=Climbin' Up The Ladder (Parts 1&2)
TTITLE11=Winner Takes All
TTITLE12=Coolin' Me Out (Parts 1&2)
TTITLE13=Fun And Games
EXTD=
EXTT0=
EXTT1=
EXTT2=
EXTT3=
EXTT4=
EXTT5=
EXTT6=
EXTT7=
EXTT8=
EXTT9=
EXTT10=
EXTT11=
EXTT12=
EXTT13=
PLAYORDER=
